Coordinates
version=1
nRows=12
nColumns=36
inDegrees=no

Units are S.I. units (second, meters, Newtons, ...)
If the header above contains a line with 'inDegrees', this indicates whether rotational values are in degrees (yes) or radians (no).

endheader
time	pelvis_tilt	pelvis_list	pelvis_rotation	pelvis_tx	pelvis_ty	pelvis_tz	hip_flexion_r	hip_adduction_r	hip_rotation_r	knee_angle_r	knee_adduction_r	ankle_angle_r	subtalar_angle_r	mtp_angle_r	hip_flexion_l	hip_adduction_l	hip_rotation_l	knee_angle_l	knee_adduction_l	ankle_angle_l	subtalar_angle_l	mtp_angle_l	lumbar_extension	lumbar_bending	lumbar_rotation	arm_flex_r	arm_add_r	arm_rot_r	elbow_flex_r	pro_sup_r	arm_flex_l	arm_add_l	arm_rot_l	elbow_flex_l	pro_sup_l
2.785	-0.579619	-0.010632	-0.0543641	-0.349878	0.679036	-1.20255	1.54426	-0.171277	-0.238067	1.45132	-0.13403	0.499972	0.148926	-0.128915	1.54876	-0.340065	-0.235945	1.45003	-0.144641	0.523668	0.180018	-0.128915	-0.247965	-0.0315421	0.0314891	2.15272	-0.109316	0.395828	0.776486	0.345619	2.33476	-0.0843759	1.14794	0.503054	2.09
2.79	-0.583256	-0.0110537	-0.0560958	-0.351252	0.675303	-1.20252	1.5566	-0.170698	-0.236354	1.4618	-0.133487	0.501953	0.147718	-0.128915	1.56215	-0.342552	-0.232349	1.46142	-0.145446	0.526064	0.178223	-0.128915	-0.251302	-0.0314247	0.0323425	2.15945	-0.108625	0.395453	0.776584	0.346826	2.34288	-0.083665	1.1514	0.501353	2.09
2.795	-0.586682	-0.0117726	-0.0576655	-0.352534	0.671632	-1.2025	1.56847	-0.170239	-0.237606	1.47204	-0.13564	0.503799	0.147414	-0.128915	1.5753	-0.344937	-0.231019	1.47241	-0.148855	0.528371	0.177436	-0.128915	-0.254653	-0.0310041	0.0331407	2.16578	-0.108067	0.395291	0.776938	0.345338	2.34967	-0.0834082	1.14822	0.501245	2.09
2.8	-0.59024	-0.012756	-0.0594079	-0.353812	0.66795	-1.20244	1.58033	-0.169587	-0.239571	1.48208	-0.138068	0.505578	0.146929	-0.128915	1.58876	-0.347445	-0.230444	1.48325	-0.15347	0.530599	0.176753	-0.128915	-0.257841	-0.0302904	0.0337136	2.17196	-0.1071	0.394596	0.777329	0.343879	2.35649	-0.0833185	1.14568	0.501101	2.09
2.805	-0.593564	-0.0140841	-0.0615032	-0.355053	0.664316	-1.20234	1.59202	-0.168428	-0.260393	1.49034	-0.159271	0.506943	0.150967	-0.128915	1.60238	-0.350508	-0.245724	1.49277	-0.174559	0.532554	0.180715	-0.128915	-0.261224	-0.0293193	0.0348613	2.1782	-0.106357	0.39415	0.778039	0.335529	2.36358	-0.082934	1.14621	0.49928	2.09
2.81	-0.596478	-0.0152006	-0.0638144	-0.35626	0.66076	-1.2022	1.60293	-0.166702	-0.263151	1.49982	-0.162566	0.50838	0.14955	-0.128915	1.61502	-0.353549	-0.243931	1.50357	-0.178182	0.534771	0.179462	-0.128915	-0.265051	-0.0286502	0.0361707	2.1844	-0.105477	0.394009	0.778346	0.334103	2.3707	-0.0825745	1.14722	0.4963	2.09
2.815	-0.599124	-0.016148	-0.06642	-0.357443	0.657245	-1.202	1.61357	-0.164547	-0.265768	1.50917	-0.165914	0.509552	0.147806	-0.128915	1.62726	-0.356853	-0.241675	1.51436	-0.181247	0.537	0.178136	-0.128915	-0.269041	-0.0283131	0.0376546	2.19044	-0.104729	0.394174	0.77867	0.332414	2.37757	-0.0823152	1.14688	0.494847	2.09
2.82	-0.601595	-0.017021	-0.0685609	-0.358597	0.65373	-1.20186	1.6241	-0.162944	-0.26812	1.51869	-0.169052	0.510708	0.145983	-0.128915	1.6393	-0.359508	-0.23883	1.525	-0.183803	0.539111	0.176748	-0.128915	-0.273073	-0.027965	0.0387687	2.19632	-0.10426	0.394903	0.779313	0.33039	2.38423	-0.0820229	1.14544	0.495328	2.09
2.825	-0.603618	-0.0181009	-0.0703125	-0.359695	0.650264	-1.20176	1.63401	-0.161867	-0.270232	1.52831	-0.171645	0.512029	0.144209	-0.128915	1.65092	-0.361561	-0.23527	1.53563	-0.185957	0.54106	0.174851	-0.128915	-0.277528	-0.0273412	0.0396637	2.20184	-0.104092	0.395646	0.780596	0.328844	2.39098	-0.0816729	1.1441	0.496945	2.09
2.83	-0.605206	-0.0190374	-0.0713239	-0.360723	0.646861	-1.20184	1.64344	-0.161966	-0.271946	1.53807	-0.173923	0.513493	0.142784	-0.128915	1.66181	-0.362276	-0.231389	1.54614	-0.187668	0.543072	0.172089	-0.128915	-0.28239	-0.0264719	0.0399849	2.208	-0.10337	0.396665	0.780011	0.327866	2.39766	-0.0812515	1.14426	0.496569	2.09
2.835	-0.606949	-0.0202714	-0.0719421	-0.361747	0.64345	-1.20195	1.6529	-0.162485	-0.273567	1.54781	-0.175767	0.514812	0.141095	-0.128915	1.673	-0.362214	-0.226818	1.55653	-0.189234	0.544886	0.168759	-0.128915	-0.286943	-0.0250095	0.0400541	2.21427	-0.102447	0.398466	0.779001	0.327212	2.40403	-0.0809457	1.14524	0.494653	2.09
2.84	-0.60839	-0.021406	-0.0725602	-0.362719	0.640062	-1.20206	1.66204	-0.163015	-0.274811	1.55759	-0.177314	0.516104	0.139097	-0.128915	1.68376	-0.362015	-0.221724	1.56699	-0.190184	0.546749	0.165094	-0.128915	-0.291629	-0.0236071	0.0403363	2.22042	-0.101741	0.400691	0.778555	0.326881	2.40982	-0.0807432	1.14567	0.49299	2.09
